# AST/ASF file generated using VICON BodyLanguage
# -----------------------------------------------
:version 1.10
:name VICON
:units
  mass 1.0
  length 0.45
  angle deg
:documentation
   .ast/.asf automatically generated from VICON data using
   VICON BodyBuilder and BodyLanguage model FoxedUp or BRILLIANT.MOD
:root
   order TX TY TZ RX RY RZ
   axis XYZ
   position 0 0 0  
   orientation 0 0 0 
:bonedata
  begin
     id 1 
     name lhipjoint
     direction 0.570549 -0.739093 0.358072 
     length 2.41801 
     axis 0 0 0  XYZ
  end
  begin
     id 2 
     name lfemur
     direction 0.34202 -0.939693 0  
     length 7.44434  
     axis 0 0 20  XYZ
    dof rx ry rz
    limits (-160.0 20.0)
           (-70.0 70.0)
           (-60.0 70.0)
  end
  begin
     id 3 
     name ltibia
     direction 0.34202 -0.939693 0   
     length 7.60047   
     axis 0 0 20   XYZ
    dof rx
    limits (-10.0 170.0)
  end
  begin
     id 4 
     name lfoot
     direction 0.0909041 -0.249757 0.964032   
     length 2.03437   
     axis -90 7.62852e-016 20   XYZ
    dof rx rz
    limits (-45.0 90.0)
           (-70.0 20.0)
  end
  begin
     id 5 
     name ltoes
     direction 1.53547e-011 -4.2174e-011 1   
     length 1.02054   
     axis -90 7.62852e-016 20   XYZ
    dof rx
    limits (-90.0 20.0)
  end
  begin
     id 6 
     name rhipjoint
     direction -0.558096 -0.746754 0.361784   
     length 2.3932  
     axis 0 0 0  XYZ 
  end
  begin
     id 7 
     name rfemur
     direction -0.34202 -0.939693 0   
     length 7.3886   
     axis 0 0 -20   XYZ
    dof rx ry rz
    limits (-160.0 20.0)
           (-70.0 70.0)
           (-70.0 60.0)
  end
  begin
     id 8 
     name rtibia
     direction -0.34202 -0.939693 0   
     length 7.4839   
     axis 0 0 -20   XYZ
    dof rx
    limits (-10.0 170.0)
 end
 begin
     id 9 
     name rfoot
     direction -0.114619 -0.314914 0.942174   
     length 2.25127  
     axis -90 -7.62852e-016 -20   XYZ
    dof rx rz
    limits (-45.0 90.0)
           (-20.0 70.0)
  end
  begin
     id 10 
     name rtoes
     direction -1.53518e-011 -4.21881e-011 1   
     length 1.11821   
     axis -90 -7.62852e-016 -20   XYZ
    dof rx
    limits (-90.0 20.0)
  end
  begin
     id 11 
     name lowerback
     direction -0.00902269 0.996426 -0.0839821   
     length 2.25052   
     axis 0 0 0   XYZ
    dof rx ry rz
    limits (-20.0 45.0)
           (-30.0 30.0)
           (-30.0 30.0)
  end
  begin
     id 12 
     name upperback
     direction 0.0370973 0.999169 -0.0168941   
     length 2.24876   
     axis 0 0 0   XYZ
    dof rx ry rz
    limits (-20.0 45.0)
           (-30.0 30.0)
           (-30.0 30.0)
  end
  begin
     id 13 
     name thorax
     direction 0.0402726 0.998931 0.0227027   
     length 2.26408   
     axis 0 0 0   XYZ
    dof rx ry rz
    limits (-20.0 45.0)
           (-30.0 30.0)
           (-30.0 30.0)
  end
  begin
     id 14 
     name lowerneck
     direction -0.0733697 0.98508 0.155675   
     length 1.58204   
     axis 0 0 0   XYZ
    dof rx ry rz
    limits (-20.0 45.0)
           (-30.0 30.0)
           (-30.0 30.0)
  end
  begin
     id 15 
     name upperneck
     direction 0.0426554 0.993501 -0.105526   
     length 1.61222   
     axis 0 0 0   XYZ
    dof rx ry rz
    limits (-20.0 45.0)
           (-30.0 30.0)
           (-30.0 30.0)
  end
  begin
     id 16
     name head
     direction 0.020792 0.998384 -0.0528868  
     length 1.61527  
     axis 0 0 0   XYZ
    dof rx ry rz
    limits (-20.0 45.0)
           (-30.0 30.0)
           (-30.0 30.0)
  end
  begin
     id 17 
     name lclavicle
     direction 0.967109 0.155462 -0.201325  
     length 3.59357  
     axis 0 0 0   XYZ
    dof ry rz
    limits (-20.0 10.0)
           (0.0 20.0)
  end
  begin
     id 18 
     name lhumerus
     direction 1 -4.48968e-011 2.38195e-027   
     length 5.38154   
     axis 180 -30 -90   XYZ
    dof rx ry rz
    limits (-60.0 90.0)
           (-90.0 90.0)
           (-90.0 90.0)
  end
  begin
     id 19
     name lradius
     direction 1 -4.48961e-011 4.85371e-027   
     length 3.33312   
     axis 180 -30 -90   XYZ
    dof rx
    limits (-10.0 170.0)
  end
  begin
     id 20
     name lwrist
     direction 1 -4.48961e-011 4.76515e-027   
     length 1.66656   
     axis -3.27502e-015 90 90   XYZ
    dof ry
    limits (-180.0 0.0)
 end
  begin
     id 21 
     name lhand
     direction 1 -4.48951e-011 9.53074e-027   
     length 0.710789   
     axis -6.08098e-015 90 90   XYZ
    dof rx rz
    limits (-90.0 90.0)
           (-45.0 45.0)
  end
  begin
     id 22 
     name lfingers
     direction 1 -4.48953e-011 1.90613e-026   
     length 0.573057   
     axis -1.21619e-014 90 90   XYZ
    dof rx
    limits (0.0 90.0)
  end
  begin
     id 23
     name lthumb
     direction 0.707107 -6.34973e-011 0.707107   
     length 0.822798   
     axis -90 45 -9.86923e-015   XYZ
    dof rx rz
    limits (-45.0 45.0)
           (-45.0 45.0)
  end
  begin
     id 24 
     name rclavicle
     direction -0.9585 0.265289 -0.104398   
     length 3.42039  
     axis 0 0 0   XYZ 
    dof ry rz
    limits (-10.0 20.0)
           (-20.0 0.0)
  end
  begin
     id 25 
     name rhumerus
     direction -1 -4.48977e-011 2.21478e-027  
     length 5.16954   
     axis 180 30 90   XYZ
    dof rx ry rz
    limits (-90.0 60.0)
           (-90.0 90.0)
           (-90.0 90.0)
  end
  begin
     id 26 
     name rradius
     direction -1 -4.48967e-011 5.63677e-027   
     length 3.38287   
     axis 180 30 90   XYZ
    dof rx
    limits (-10.0 170.0)
  end
  begin
     id 27 
     name rwrist
     direction -1 -4.48967e-011 4.76501e-027   
     length 1.69144   
     axis -3.27502e-015 -90 -90   XYZ
    dof ry
    limits (-180.0 0.0)
  end
  begin
     id 28
     name rhand
     direction -1 -4.48902e-011 9.53292e-027   
     length 0.817967   
     axis -6.08098e-015 -90 -90   XYZ
    dof rx rz
    limits (-90.0 90.0)
           (-45.0 45.0)
  end
  begin
     id 29
     name rfingers
     direction -1 -4.49012e-011 1.90561e-026   
     length 0.659466   
     axis -1.21619e-014 -90 -90   XYZ
    dof rx
    limits (0.0 90.0)
  end
  begin
     id 30
     name rthumb
     direction -0.707107 -6.34944e-011 0.707107   
     length 0.946865   
     axis -90 -45 9.86923e-015   XYZ
    dof rx rz
    limits (-45.0 45.0)
           (-45.0 45.0)
  end
:hierarchy
  begin
    root lhipjoint rhipjoint lowerback
    lhipjoint lfemur
    lfemur ltibia
    ltibia lfoot
    lfoot ltoes
    rhipjoint rfemur
    rfemur rtibia
    rtibia rfoot
    rfoot rtoes
    lowerback upperback
    upperback thorax
    thorax lowerneck lclavicle rclavicle
    lowerneck upperneck
    upperneck head
    lclavicle lhumerus
    lhumerus lradius
    lradius lwrist
    lwrist lhand lthumb
    lhand lfingers
    rclavicle rhumerus
    rhumerus rradius
    rradius rwrist
    rwrist rhand rthumb
    rhand rfingers
  end

#!OML:ASF F:\twosubjects\two\wednesday\Session 1\Justin1.ASF
:FULLY-SPECIFIED
:DEGREES
203
root 6.45918 17.8954 13.8942 -8.75393 60.2058 -370.276
lowerback 3.52989 1.23596 2.63338
upperback 0.668318 1.83088 3.24449
thorax -1.31729 0.925271 1.77074
lowerneck -18.6899 1.89794 -7.46824
upperneck 22.669 4.91641 0.707894
head 10.1471 1.76389 2.18599
rclavicle 1.78906e-015 3.57812e-015
rhumerus 30.3229 9.36038 -52.8582
rradius 30.206
rwrist 4.69079
rhand -16.4606 25.3845
rfingers 7.12502
rthumb 9.75576 -4.36952
lclavicle 1.78906e-015 3.57812e-015
lhumerus 28.5158 -0.819642 45.9909
lradius 33.5936
lwrist -20.7508
lhand -0.535683 35.8207
lfingers 7.12502
lthumb 25.0772 64.1942
rfemur -5.81229 -5.95584 20.6542
rtibia 25.3362
rfoot -17.1443 -15.0818
rtoes 3.75641
lfemur -22.2641 18.5447 -12.8496
ltibia 40.4541
lfoot -11.9352 13.6177
ltoes 1.43449
204
root 6.4768 17.88 13.9085 -9.10684 61.2036 -370.711
lowerback 3.50463 1.21713 2.7424
upperback 0.691565 1.80828 3.23245
thorax -1.27526 0.914221 1.69931
lowerneck -19.0836 2.13184 -7.25638
upperneck 22.8805 5.22222 0.721812
head 10.2869 1.91434 2.21117
rclavicle 1.36913e-014 3.18055e-015
rhumerus 30.5714 9.34935 -53.0985
rradius 30.1077
rwrist 4.93974
rhand -16.5475 25.1425
rfingers 7.12502
rthumb 9.67196 -4.61543
lclavicle 1.36913e-014 3.18055e-015
lhumerus 28.2837 -1.27534 45.1095
lradius 33.9671
lwrist -20.352
lhand -0.508974 37.1364
lfingers 7.12502
lthumb 25.1028 65.5062
rfemur -5.67055 -6.39774 20.7736
rtibia 25.3847
rfoot -17.2609 -15.7796
rtoes 2.7399
lfemur -22.8804 19.5993 -13.4989
ltibia 40.6788
lfoot -12.0621 14.1634
ltoes 3.43381
205
root 6.49704 17.8719 13.9226 -10.1393 62.0535 -371.989
lowerback 3.41304 1.25683 3.1814
upperback 0.637788 1.88292 3.4195
thorax -1.27245 0.952236 1.6448
lowerneck -19.2121 2.38578 -6.94836
upperneck 22.9912 5.5666 0.487654
head 10.3527 2.06733 2.1311
rclavicle 2.25869e-014 7.95139e-015
rhumerus 30.7098 9.51368 -53.0727
rradius 30.0261
rwrist 4.8385
rhand -16.8735 24.7145
rfingers 7.12502
rthumb 9.35737 -5.05782
lclavicle 2.25869e-014 7.95139e-015
lhumerus 27.9313 -1.72955 44.405
lradius 34.3238
lwrist -19.986
lhand -0.357658 38.3044
lfingers 7.12502
lthumb 25.2478 66.6539
rfemur -5.65538 -6.64541 21.3378
rtibia 25.5386
rfoot -17.611 -16.4363
rtoes 3.66331
lfemur -23.4693 20.2339 -13.6543
ltibia 40.8196
lfoot -12.4814 14.8002
ltoes 5.20665
206
root 6.52169 17.8715 13.9399 -10.0859 62.9871 -372.077
lowerback 3.26807 1.32869 2.99873
upperback 0.474239 1.97211 3.44707
thorax -1.36699 0.996289 1.77265
lowerneck -19.0584 2.50735 -7.01913
upperneck 23.0483 5.73813 0.55294
head 10.3325 2.15084 2.18719
rclavicle 5.62561e-014 2.94201e-014
rhumerus 30.5539 9.84833 -52.9561
rradius 30.2134
rwrist 4.46423
rhand -16.8645 24.6823
rfingers 7.12502
rthumb 9.36604 -5.08966
lclavicle 5.62561e-014 2.94201e-014
lhumerus 27.6402 -1.78535 43.9987
lradius 34.0485
lwrist -20.0717
lhand -0.538116 37.6575
lfingers 7.12502
lthumb 25.0749 66.0313
rfemur -5.64645 -6.68759 21.2684
rtibia 25.6198
rfoot -18.2153 -17.0443
rtoes 6.19251
lfemur -24.077 20.958 -14.4795
ltibia 40.8981
lfoot -12.5804 15.3472
ltoes 5.4506
207
root 6.55103 17.8749 13.9529 -10.1914 63.8403 -372.179
lowerback 3.22796 1.45193 2.90036
upperback 0.40618 2.1329 3.41638
thorax -1.41835 1.07624 1.78906
lowerneck -19.1835 2.59242 -7.18994
upperneck 23.2576 5.83986 0.912572
head 10.4073 2.2207 2.36475
rclavicle 5.54112e-015 -1.63003e-014
rhumerus 30.3488 9.99039 -52.8875
rradius 30.4613
rwrist 4.27056
rhand -16.3651 25.1744
rfingers 7.12502
rthumb 9.84796 -4.57533
lclavicle 5.54112e-015 -1.63003e-014
lhumerus 27.4219 -1.77297 43.6338
lradius 33.9032
lwrist -20.1668
lhand -0.466665 36.9513
lfingers 7.12502
lthumb 25.1433 65.3156
rfemur -5.51492 -6.91261 21.1638
rtibia 25.7966
rfoot -18.7952 -17.4491
rtoes 7.72903
lfemur -24.3114 21.3117 -15.2119
ltibia 40.8596
lfoot -12.5766 16.2559
ltoes 5.69862
208
root 6.57552 17.8761 13.9585 -11.7445 64.634 -373.679
lowerback 3.4034 1.52676 3.45131
upperback 0.477512 2.26679 3.54006
thorax -1.4289 1.14297 1.59923
lowerneck -19.5603 2.76129 -7.13279
upperneck 23.4106 6.08028 0.987617
head 10.5209 2.33677 2.42902
rclavicle 1.25731e-014 -2.8625e-014
rhumerus 30.384 10.1703 -52.706
rradius 30.6152
rwrist 3.99728
rhand -16.2791 25.1008
rfingers 7.12502
rthumb 9.93091 -4.64499
lclavicle 1.25731e-014 -2.8625e-014
lhumerus 27.3177 -1.57452 43.478
lradius 33.7944
lwrist -20.3182
lhand -0.439918 37.3623
lfingers 7.12502
lthumb 25.1689 65.7229
rfemur -5.17674 -7.37334 21.6771
rtibia 25.9117
rfoot -19.1485 -17.8554
rtoes 7.88713
lfemur -24.2704 21.1122 -15.1456
ltibia 40.7993
lfoot -12.6913 17.4545
ltoes 5.12428
209
root 6.57942 17.8831 13.9593 -10.7405 65.7602 -372.631
lowerback 3.64008 1.57456 2.79812
upperback 0.371563 2.31432 3.34552
thorax -1.68789 1.16505 1.7522
lowerneck -19.4885 2.98117 -6.82615
upperneck 23.1446 6.34102 0.729416
head 10.4182 2.46168 2.31396
rclavicle 3.14328e-014 3.85642e-014
rhumerus 30.4426 10.3511 -52.6745
rradius 30.6819
rwrist 3.88414
rhand -16.3075 24.6847
rfingers 7.12502
rthumb 9.90351 -5.06234
lclavicle 3.14328e-014 3.85642e-014
lhumerus 27.2079 -1.41814 43.2344
lradius 33.5471
lwrist -20.4308
lhand -0.51955 37.6253
lfingers 7.12502
lthumb 25.0926 65.9966
rfemur -5.25298 -7.3501 21.0632
rtibia 26.0469
rfoot -19.5739 -18.7149
rtoes 8.66907
lfemur -24.6454 20.928 -16.4795
ltibia 40.6436
lfoot -12.5633 18.6363
ltoes 1.96105
210
root 6.64181 17.8877 13.9585 -10.9719 66.6427 -373.121
lowerback 2.66702 1.72752 2.91496
upperback 0.623257 2.46514 3.4633
thorax -0.886067 1.24845 1.83766
lowerneck -19.1521 3.14887 -6.52901
upperneck 22.3319 6.55698 0.155839
head 10.0872 2.54778 2.06213
rclavicle -5.26779e-014 -4.37326e-015
rhumerus 30.7333 10.2813 -52.1662
rradius 30.8061
rwrist 3.63741
rhand -16.0253 24.7783
rfingers 7.12502
rthumb 10.1758 -4.95565
lclavicle -5.26779e-014 -4.37326e-015
lhumerus 27.4128 -1.031 43.3633
lradius 33.286
lwrist -20.5472
lhand -0.542185 37.1365
lfingers 7.12502
lthumb 25.071 65.5108
rfemur -5.17896 -8.05209 20.9124
rtibia 26.068
rfoot -19.7576 -18.8148
rtoes 7.0891
lfemur -24.8982 21.3688 -17.1419
ltibia 40.5238
lfoot -12.9808 19.1604
ltoes -0.825877
211
root 6.67986 17.8702 13.9589 -11.484 67.515 -373.632
lowerback 2.5725 1.84572 3.25803
upperback 0.705721 2.61892 3.27376
thorax -0.725873 1.32528 1.45191
lowerneck -19.4319 3.31949 -6.15527
upperneck 22.387 6.71422 0.116675
head 10.1659 2.64103 2.0183
rclavicle 4.91247e-014 2.0276e-014
rhumerus 30.5116 10.14 -52.4518
rradius 31.0997
rwrist 3.63023
rhand -16.0647 24.8254
rfingers 7.12502
rthumb 10.1378 -4.91034
lclavicle 4.91247e-014 2.0276e-014
lhumerus 27.5173 -1.18571 42.7728
lradius 33.1828
lwrist -20.2826
lhand -0.596343 37.0436
lfingers 7.12502
lthumb 25.0191 65.4252
rfemur -4.96367 -8.60982 20.8507
rtibia 26.1725
rfoot -19.6449 -19.1574
rtoes 4.5357
lfemur -24.8921 21.326 -17.4994
ltibia 40.306
lfoot -13.8519 19.5164
ltoes 1.1333
